<svg preserveAspectRatio="none" overflow="visible" style="display: block;" width="320" height="84" viewBox="0 0 320 84" fill="none" xmlns="http://www.w3.org/2000/svg">
<g id="Vector" filter="url(#filter0_d_0_10)">
<path d="M4 19.4222C4 18.9449 4.05143 18.4751 4.15103 18.0148H4V19.4222ZM4 56.5778V57.9852H4.15103C4.05143 57.5249 4 57.0551 4 56.5778Z M315.849 18.0148C315.949 18.4751 316 18.9449 316 19.4222V18.0148H315.849ZM316 56.5778C316 57.0551 315.949 57.5249 315.849 57.9852H316V56.5778Z M4.15103 18.0148C4.05143 18.4751 4 18.9449 4 19.4222V56.5778C4 57.0551 4.05143 57.5249 4.15103 57.9852C4.98529 61.8408 9.19897 65.0268 14.8693 66.3429C14.8372 66.5575 14.8208 66.7741 14.8208 66.9926C14.8208 71.9672 23.2989 76 33.7572 76C34.5195 76 35.2712 75.9786 36.0099 75.9369C36.4516 75.9785 36.9039 76 37.3642 76H152.786C155.736 76 158.355 75.1158 160 73.7487C161.645 75.1158 164.264 76 167.214 76H282.636C283.096 76 283.548 75.9785 283.99 75.9369C284.729 75.9786 285.481 76 286.243 76C296.701 76 305.179 71.9672 305.179 66.9926C305.179 66.7741 305.163 66.5575 305.131 66.3429C310.801 65.0268 315.015 61.8408 315.849 57.9852C315.949 57.5249 316 57.0551 316 56.5778V19.4222C316 18.9449 315.949 18.4751 315.849 18.0148C315.015 14.1592 310.801 10.9732 305.131 9.65709C305.163 9.44252 305.179 9.22587 305.179 9.00741C305.179 4.03275 296.701 0 286.243 0C285.481 0 284.729 0.0214221 283.99 0.0630701C283.548 0.0215318 283.096 0 282.636 0H167.214C164.264 0 161.645 0.884239 160 2.25131C158.355 0.884239 155.736 0 152.786 0H37.3642C36.9039 0 36.4516 0.0215318 36.0099 0.0630702C35.2712 0.0214221 34.5195 0 33.7572 0C23.2989 0 14.8208 4.03275 14.8208 9.00741C14.8208 9.22587 14.8372 9.44252 14.8693 9.65709C9.19897 10.9732 4.98529 14.1592 4.15103 18.0148Z" fill="#B44439"/>
</g>
<defs>
<filter id="filter0_d_0_10" x="0" y="0" width="320" height="84" filterUnits="userSpaceOnUse" color-interpolation-filters="sRGB">
<feFlood flood-opacity="0" result="BackgroundImageFix"/>
<feColorMatrix in="SourceAlpha" type="matrix" values="0 0 0 0 0 0 0 0 0 0 0 0 0 0 0 0 0 0 127 0" result="hardAlpha"/>
<feOffset dy="4"/>
<feGaussianBlur stdDeviation="2"/>
<feComposite in2="hardAlpha" operator="out"/>
<feColorMatrix type="matrix" values="0 0 0 0 0 0 0 0 0 0 0 0 0 0 0 0 0 0 0.25 0"/>
<feBlend mode="normal" in2="BackgroundImageFix" result="effect1_dropShadow_0_10"/>
<feBlend mode="normal" in="SourceGraphic" in2="effect1_dropShadow_0_10" result="shape"/>
</filter>
</defs>
</svg>
