<svg preserveAspectRatio="none" overflow="visible" style="display: block;" width="49.8333" height="49.8396" viewBox="0 0 49.8333 49.8396" fill="none" xmlns="http://www.w3.org/2000/svg">
<path id="Icon" d="M2 2.0063L47.8333 47.8396M18.6667 18.673V24.923C18.6678 26.1583 19.0349 27.3656 19.7217 28.3924C20.4086 29.4192 21.3843 30.2194 22.5256 30.692C23.667 31.1646 24.9228 31.2884 26.1345 31.0477C27.3461 30.807 28.4593 30.2126 29.3333 29.3396M31.1667 19.3813V8.2563C31.1682 6.70636 30.5938 5.21113 29.555 4.06088C28.5161 2.91063 27.0869 2.18743 25.5448 2.03166C24.0027 1.87589 22.4577 2.29868 21.2098 3.21794C19.9619 4.1372 19.1001 5.48736 18.7917 7.0063M35.3333 35.2355C33.2996 37.3113 30.6919 38.7322 27.845 39.3159C24.9981 39.8995 22.0417 39.6192 19.3552 38.5111C16.6687 37.4029 14.3745 35.5173 12.767 33.0962C11.1595 30.6751 10.3121 27.829 10.3333 24.923V20.7563M39.5 20.7563V24.923C39.4993 25.7822 39.4226 26.6397 39.2708 27.4855M24.9167 39.5063V47.8396M16.5833 47.8396H33.25" stroke="#37848C" stroke-width="4" stroke-linecap="round" stroke-linejoin="round"/>
</svg>
